<svg width="187" height="186" viewBox="0 0 187 186" fill="none" xmlns="http://www.w3.org/2000/svg">
<path d="M36.4319 164.198C36.0884 164.198 35.7449 164.06 35.47 163.854C34.783 163.305 34.6456 162.343 35.1952 161.656C36.0884 160.556 33.8898 157.877 31.6225 155.129C26.6757 149.22 19.2555 140.288 29.4239 129.982C35.8136 123.524 35.6762 120.844 35.3326 119.951C34.7143 118.44 31.7599 118.096 30.7294 118.096C30.7294 118.096 30.7294 118.096 30.6606 118.096C29.7675 118.096 29.0804 117.409 29.0804 116.516C29.0804 115.623 29.7675 114.936 30.6606 114.936C31.279 114.936 36.638 115.004 38.2183 118.715C39.5924 121.944 37.4625 126.341 31.6225 132.181C23.5153 140.426 29.0804 147.09 34.0272 153.067C37.1877 156.846 40.142 160.488 37.6686 163.579C37.3251 163.992 36.8442 164.198 36.4319 164.198Z" fill="#C8DBF4"/>
<path d="M13.4843 149.907H47.2875L39.7986 182.13H20.9733L13.4843 149.907Z" fill="#D4E4F8"/>
<path d="M13.1407 151.35H47.631C48.4554 151.35 49.0738 150.731 49.0738 149.907C49.0738 149.082 48.4554 148.464 47.631 148.464H13.1407C12.3163 148.464 11.6979 149.082 11.6979 149.907C11.6979 150.731 12.3163 151.35 13.1407 151.35Z" fill="#9FC1F4"/>
<path d="M42.2721 115.966L10.3239 126.547C10.3239 126.547 -1.21863 118.714 7.16346 115.21C3.17853 108.409 2.62889 95.0796 15.5456 91.2321C28.3935 87.3846 27.5003 106.141 27.5003 106.141C27.5003 106.141 43.3714 89.3771 42.6156 109.302C45.6386 108.477 58.4179 111.5 42.2721 115.966Z" fill="#C8DBF4"/>
<path d="M15.6143 130.463H54.3643C54.3643 130.463 64.6015 123.249 53.8834 123.593C56.0133 114.386 50.0359 104.286 36.5008 103.943C22.9658 103.599 27.7065 118.577 27.7065 118.577C27.7065 118.577 4.96493 113.149 11.8355 124.348C0.636476 124.829 6.40775 127.715 15.6143 130.463Z" fill="#D4E4F8"/>
<path d="M46.5317 132.524L16.0951 133.624C14.5835 133.692 13.1407 132.937 12.1101 131.494C10.9421 129.845 10.6673 127.852 15.5454 127.234C13.9652 122.425 17.4005 114.043 30.0423 113.356C42.6154 112.737 36.2945 124.348 36.2945 124.348C36.2945 124.348 55.326 116.035 48.8677 128.402C51.6846 128.265 62.2653 131.975 46.5317 132.524Z" fill="#C8DBF4"/>
<path d="M116.33 185.34L119.21 101.108L116.323 101.504L113.635 185.709L116.33 185.34Z" fill="#9FC1F4"/>
<path d="M158.567 185.247L159.599 101.017L162.244 101.533L161.4 185.8L158.567 185.247Z" fill="#9FC1F4"/>
<path d="M179.084 185.212L175.534 101.397L177.878 101.605L181.427 185.42L179.084 185.212Z" fill="#9FC1F4"/>
<path d="M178.28 98.3361H98.7141V101.863H178.28V98.3361Z" fill="#C8DBF4"/>
<path d="M96.8202 184.311L105.006 100.603L101.972 100.739L93.9879 184.439L96.8202 184.311Z" fill="#9FC1F4"/>
<path opacity="0.2" d="M178.209 98.3361H159.755V101.863H178.209V98.3361Z" fill="#3A7CD5"/>
<path d="M140.315 71.4323H171.8C172.837 71.4323 173.55 72.4986 173.355 73.811L170.699 95.8755C170.57 97.1879 169.598 98.2542 168.561 98.2542H137.076C136.039 98.2542 135.327 97.1879 135.521 95.8755L138.177 73.811C138.371 72.4986 139.343 71.4323 140.315 71.4323Z" fill="#9DB6FE"/>
<path d="M139.862 71.4323H171.347C172.384 71.4323 173.096 72.4986 172.902 73.811L170.246 95.8755C170.116 97.1879 169.144 98.2542 168.108 98.2542H136.622C135.586 98.2542 134.873 97.1879 135.068 95.8755L137.724 73.811C137.853 72.4986 138.825 71.4323 139.862 71.4323Z" fill="#9DB6FE"/>
<path opacity="0.99" d="M137.251 97.0585C136.939 97.0585 136.689 96.9004 136.501 96.6633C136.314 96.3471 136.252 96.0308 136.314 95.6356L138.874 74.3698C138.999 73.4211 139.686 72.7096 140.373 72.7096H170.718C171.031 72.7096 171.28 72.8677 171.468 73.1049C171.655 73.4211 171.717 73.7373 171.655 74.1326L169.095 95.3984C168.97 96.3471 168.283 97.0585 167.596 97.0585H137.251Z" fill="white"/>
<mask id="mask0" mask-type="alpha" maskUnits="userSpaceOnUse" x="136" y="72" width="36" height="26">
<path opacity="0.99" d="M137.251 97.0585C136.939 97.0585 136.689 96.9004 136.501 96.6633C136.314 96.3471 136.252 96.0308 136.314 95.6356L138.874 74.3698C138.999 73.4211 139.686 72.7096 140.373 72.7096H170.718C171.031 72.7096 171.28 72.8677 171.468 73.1049C171.655 73.4211 171.717 73.7373 171.655 74.1326L169.095 95.3984C168.97 96.3471 168.283 97.0585 167.596 97.0585H137.251Z" fill="white"/>
</mask>
<g mask="url(#mask0)">
<path d="M146.348 97.3517L149.976 72.8887H144.736L142.586 85.01L141.376 97.3517H146.348Z" fill="#F1F4FA"/>
</g>
<path d="M127.423 97.3517H169.209C169.598 97.3517 169.857 97.7618 169.792 98.254H126.645C126.71 97.7618 127.034 97.3517 127.423 97.3517Z" fill="#9DB6FE"/>
<path d="M95.0903 175.357L89.9228 177.9L83.4428 167.073L88.6924 164.53L95.0903 175.357Z" fill="#FFB573"/>
<path d="M89.2665 177.079L95.3363 174.455C95.5824 174.373 95.8285 174.455 95.9105 174.619L98.5353 178.638C98.7813 179.048 98.5353 179.704 98.0431 179.868C95.9105 180.771 94.8442 181.099 92.1374 182.165C90.4969 182.903 86.5597 184.626 84.263 185.61C82.0484 186.594 80.9821 184.626 81.8023 184.052C85.6575 181.427 87.38 179.458 88.3643 177.736C88.6924 177.408 88.9384 177.161 89.2665 177.079Z" fill="#263238"/>
<path opacity="0.2" d="M90.9072 168.303L85.7397 170.845L89.0206 176.423L94.4342 174.126L90.9072 168.303Z" fill="black"/>
<path d="M87.0521 87.0988C87.0521 87.0988 70.1551 109.655 65.1516 120.647C59.656 132.704 85.9037 173.47 85.9037 173.47L95.5006 170.681C95.5006 170.681 73.719 130.53 76.6719 126.1C84.8743 113.715 108.624 87.3448 108.624 87.3448L87.0521 87.0988Z" fill="#2D1686"/>
<path opacity="0.3" d="M93.3679 104.734C88.7746 111.46 86.806 123.435 86.5599 131.31C89.1847 126.47 91.9735 121.385 94.5983 116.709C96.3208 112.28 98.0433 107.933 99.6838 104.242C99.2737 101.699 96.895 99.6484 93.3679 104.734Z" fill="black"/>
<path d="M96.4848 171.994L85.9857 176.751L82.9508 173.634L95.4185 167.975L96.4848 171.994Z" fill="#2D1686"/>
<path d="M98.4533 41.6576C97.387 43.7902 96.3207 45.6768 95.1723 47.5633C94.024 49.4499 92.7936 51.3364 91.4812 53.141C90.8251 54.0432 90.1688 54.9455 89.5127 55.8478C88.7744 56.75 88.1182 57.6523 87.38 58.4725C85.9036 60.195 84.3451 61.9176 82.6226 63.558C82.2125 63.9682 81.7204 64.3783 81.3102 64.7884C80.8181 65.1985 80.408 65.6086 79.9158 65.9367L78.4394 67.0031C78.2753 67.0851 78.3574 67.0851 77.7832 67.4132C77.3731 67.6593 76.9629 67.8233 76.5528 67.9874C75.6506 68.3155 74.7483 68.3975 73.846 68.3154C72.9438 68.2334 72.0415 67.9053 71.2212 67.4132C70.8111 67.1671 70.401 66.839 70.0729 66.5109C69.9089 66.3469 69.7448 66.1828 69.5808 65.9367C69.4167 65.7727 69.2527 65.5266 69.2527 65.4446C68.8425 64.7884 68.5144 64.0502 68.2684 63.476C67.6942 62.1636 67.4481 61.0153 67.12 59.8669C66.5459 57.4882 66.2998 55.2736 66.1357 53.0589C65.9717 50.8443 65.8897 48.6296 65.9717 46.3329C66.0537 44.8565 67.2841 43.7082 68.7605 43.7902C69.9909 43.8722 71.0572 43.4621 71.3033 44.6104C72.2876 48.5476 73.3539 53.9612 74.7483 57.4882C75.0764 58.3085 75.4865 59.2108 75.8966 59.7849C76.0607 60.113 76.3068 60.3591 76.4708 60.6052C76.5528 60.6872 76.4708 60.5231 76.3888 60.4411C76.3067 60.3591 76.2247 60.2771 76.2247 60.195C76.0607 60.031 75.8966 59.8669 75.7326 59.7849C75.4045 59.5389 74.9944 59.4568 74.5842 59.3748C74.1741 59.2928 73.846 59.3748 73.4359 59.4568C73.1078 59.5389 72.5336 59.949 72.9438 59.6209L73.928 58.7186C74.5842 58.0624 75.2404 57.4062 75.8966 56.668C78.4394 53.7972 80.7361 50.5162 82.9507 47.0712C84.017 45.3487 85.0013 43.134 85.9856 41.4115C87.0519 39.689 87.7901 37.5564 88.6924 35.8338C90.2509 34.0293 94.4341 34.0293 96.4027 34.5215C99.0275 35.3417 99.6837 39.1148 98.4533 41.6576Z" fill="#4E33B5"/>
<path d="M86.7239 52.4847C86.3137 54.3713 85.9036 57.3242 85.9036 59.8669C86.1497 59.6208 86.3958 59.3748 86.7239 59.0467C88.7745 56.914 90.661 54.6994 92.3015 52.4847C93.0397 51.5825 93.6959 50.5982 94.3521 49.6139C94.7622 48.5476 95.0903 47.5633 95.5005 46.497C95.5825 46.1689 95.7465 45.8408 95.8286 45.4306C93.1218 44.1183 88.2823 45.4306 86.7239 52.4847Z" fill="#2D1686"/>
<path d="M70.565 43.7901L67.6121 40.5912L64.6592 41.9856C64.6592 41.9856 65.1514 43.9542 66.2177 46.0048C66.8739 47.3172 68.5964 47.6453 69.6627 46.579C70.4009 45.8407 70.729 44.7744 70.565 43.7901Z" fill="#FFAE73"/>
<path d="M78.7828 167.283L76.4032 179.271L82.2766 180.437L84.6562 168.449L78.7828 167.283Z" fill="#FFB573"/>
<path d="M76.2295 178.642L82.8734 179.954C83.1195 180.036 83.2835 180.201 83.2015 180.365L82.2993 184.958C82.2172 185.45 81.561 185.778 81.0689 185.696C78.7722 185.204 77.7059 184.876 74.835 184.302C73.0305 183.974 68.109 183.153 65.5663 182.661C63.1876 182.169 63.7618 180.036 64.8281 180.118C69.7495 180.201 73.1946 179.626 75.1631 178.806C75.4912 178.56 75.9014 178.56 76.2295 178.642Z" fill="#263238"/>
<path opacity="0.2" d="M83.2014 173.884L77.3777 172.736L76.1473 178.888L82.0531 180.118L83.2014 173.884Z" fill="black"/>
<path d="M98.7042 87.2671C98.7042 87.2671 88.9433 114.171 86.0725 125.49C82.8735 137.876 74.0149 175.443 74.0149 175.443L84.7601 177.084C84.7601 177.084 93.8648 143.516 98.7042 131.458C103.737 110.438 118.162 102.195 119.21 87.5132C112.648 87.5132 98.7042 87.2671 98.7042 87.2671Z" fill="#2D1686"/>
<path d="M85.1702 179.134L72.9833 176.263L73.8474 172.849L86.5646 176.263L85.1702 179.134Z" fill="#2D1686"/>
<path d="M86.4282 87.5945C86.4282 87.5945 85.5587 88.1975 84.8155 91.207C84.8155 91.207 115.215 92.258 118.588 91.5395C118.588 91.5395 119.307 88.2194 118.654 88.0655C117.962 87.9065 86.4282 87.5945 86.4282 87.5945Z" fill="#273037"/>
<path d="M101.926 87.5788C101.926 87.5788 97.4676 87.4379 95.9271 87.5431L95.3946 91.6046L101.234 91.8585L101.926 87.5788Z" fill="#69737A"/>
<path d="M90.497 38.1303C91.1531 36.0797 92.9577 34.5213 95.0083 34.1932C96.6488 33.9471 97.469 33.619 99.5196 33.537C103.129 33.2909 109.116 33.537 113.218 33.7831C115.596 33.9471 118.057 34.2752 120.026 34.6033H120.108C122.24 34.9314 123.635 36.982 123.225 39.1146C122.158 44.6923 119.287 54.2071 118.795 63.3118C118.139 75.2873 110.347 77.1739 119.287 87.755L86.9699 87.1809C86.5598 78.8964 90.661 71.9243 91.3172 65.5265C92.9577 50.598 89.0205 42.8057 90.497 38.1303Z" fill="white"/>
<path d="M112.397 33.127C110.757 39.4428 104.441 49.6138 103.129 67.167C103.621 76.7639 105.425 90.3455 106.574 96.8254H121.748C122.076 93.7905 117.401 77.092 118.877 67.167C120.272 57.5702 124.537 45.7587 125.685 39.935C126.095 37.7203 125.767 35.9158 125.767 35.9158L121.748 34.9315C119.698 34.6034 116.253 33.4551 113.792 33.291C113.3 33.209 112.808 33.127 112.397 33.127Z" fill="#4E33B5"/>
<path d="M98.6994 35.5056C103.867 38.3765 112.808 35.2596 112.808 35.2596C112.808 35.2596 111.413 32.3887 111.495 26.7291C111.495 26.483 111.495 26.1549 111.495 25.8268C110.921 25.5807 109.937 25.0065 108.788 24.4324L103.539 27.1392C103.539 27.1392 103.211 28.7797 103.047 31.5685C103.047 32.0606 102.965 32.6348 102.965 33.209C100.422 34.0292 98.6994 35.5056 98.6994 35.5056Z" fill="#FFAE73"/>
<path d="M103.621 27.2212C103.621 27.2212 103.293 28.8617 103.129 31.6505C107.64 31.4044 110.511 28.2055 111.495 26.7291C111.495 26.483 111.495 26.1549 111.495 25.8268C110.921 25.5807 109.937 25.0065 108.788 24.4324L103.621 27.2212Z" fill="#D79573"/>
<path d="M101.662 29.5339C101.662 29.5339 112.02 30.5247 112.47 24.0397C113.011 17.5547 114.632 13.4116 108.057 12.5109C101.482 11.6102 100.041 13.952 99.3204 16.1136C98.5998 18.1852 98.9601 29.0836 101.662 29.5339Z" fill="#FFAE73"/>
<path d="M111.57 26.5614C111.57 26.5614 112.2 24.4899 111.3 22.9587C111.3 22.9587 112.291 20.9772 111.57 20.4367C110.849 19.8963 110.219 21.6076 109.859 21.2474C109.588 20.8871 108.147 19.0857 107.967 16.9241C107.787 14.7624 100.401 15.3929 99.5908 15.483C98.6901 15.6631 96.5284 13.6816 96.3483 12.5107C96.3483 12.5107 98.0596 11.7901 98.8702 11.0696C99.6808 10.4391 105.625 5.93564 111.3 9.08805C116.974 12.3305 117.064 15.483 116.073 17.9148C115.083 20.3467 114.362 26.3813 111.57 26.5614Z" fill="#232729"/>
<path opacity="0.2" d="M116.991 80.701C116.909 80.701 116.827 80.701 116.827 80.619C113.382 76.0256 112.069 71.6783 112.069 71.6783C112.069 71.5963 112.069 71.4323 112.233 71.4323C112.315 71.4323 112.479 71.4322 112.479 71.5963C112.479 71.6783 113.792 75.8616 117.155 80.4549C117.237 80.5369 117.237 80.701 117.155 80.783C117.073 80.701 116.991 80.701 116.991 80.701Z" fill="white"/>
<path d="M119.288 44.2821C117.893 50.0238 118.139 57.242 119.288 64.4601C121.174 54.6172 122.322 46.4968 123.553 39.9348C122.158 39.0326 120.436 39.6888 119.288 44.2821Z" fill="#2D1686"/>
<path d="M87.3802 39.7709C88.2004 37.3922 89.0206 34.5214 89.0206 34.5214C89.0206 34.5214 99.5197 33.127 100.34 33.127C98.5354 39.1147 96.813 68.8895 96.813 68.8895C96.813 68.8895 92.9578 89.102 89.1027 96.8943L80.4901 95.4113C84.7554 86.5527 88.6925 71.5963 89.1027 65.8546C89.5128 60.195 85.9857 43.544 87.3802 39.7709Z" fill="#4E33B5"/>
<path d="M105.835 36.1619L104.687 37.2282L108.214 38.5406L107.804 37.2282L105.835 36.1619Z" fill="#E0E0E0"/>
<path d="M106.82 39.935C106.82 39.935 106.82 36.9001 105.507 36.1619C110.101 34.9316 113.136 32.4708 113.136 32.4708L115.186 33.2911C115.186 33.2911 113.792 36.7361 106.82 39.935Z" fill="white"/>
<path d="M103.867 36.0797C104.113 35.9977 104.359 36.1617 104.523 36.3258L105.097 37.31L101.406 37.6381L102.062 36.6539C102.144 36.4898 102.308 36.4078 102.39 36.4078L103.867 36.0797Z" fill="#E0E0E0"/>
<path d="M101.16 40.4271C101.16 40.4271 103.047 37.4742 105.836 36.1618C103.867 35.5876 102.555 32.6348 102.555 32.6348L100.586 33.0449C100.504 33.0449 98.2894 37.3922 101.16 40.4271Z" fill="white"/>
<path d="M125.85 36.2437C125.85 36.2437 126.67 39.7707 127.162 40.9191C127.654 42.0674 128.064 43.7899 128.474 45.0203C129.295 47.399 129.623 49.4496 130.279 51.9103C131.673 56.7498 132.74 61.7533 133.15 67.0848C133.478 72.2524 133.396 77.0918 133.15 82.0132C132.904 86.9347 132.493 91.7741 131.919 96.6136C131.755 98.09 130.443 99.0743 128.966 98.9102C127.736 98.7462 126.834 97.7619 126.67 96.6136C126.096 91.8562 125.685 87.0167 125.275 82.2593C125.029 79.8806 124.865 77.5019 124.619 75.1232C124.373 72.7445 124.127 70.4478 123.799 68.2332C123.143 63.8859 121.83 59.5386 120.354 55.1093C119.616 52.8946 118.877 50.762 118.057 48.5473C117.319 46.3327 116.417 44.118 115.596 42.0674L115.514 41.9854C114.448 39.2786 115.596 35.0954 118.549 35.0954C121.42 34.9313 125.85 36.2437 125.85 36.2437Z" fill="#4E33B5"/>
<path d="M126.67 96.0396L123.225 97.6801L129.048 99.7307C129.048 99.7307 132.986 98.5003 131.099 96.3677L130.033 96.0396C128.392 95.4654 127.572 95.5475 126.67 96.0396Z" fill="#FFAE73"/>
<path d="M121.338 101.371L127.408 102.519L129.049 99.7305L123.225 97.6799L121.338 101.371Z" fill="#FFAE73"/>
<path d="M105.179 36.49C105.179 36.49 105.754 39.3608 105.425 40.2631C105.425 40.2631 103.539 40.7553 102.309 39.853C102.226 39.853 103.375 38.1305 105.179 36.49Z" fill="#E34208"/>
<path d="M103.047 39.6068C103.047 39.6068 98.0432 49.9418 97.7971 61.9174C97.551 74.3031 98.3713 78.8964 98.3713 78.8964L100.75 82.3414L102.226 78.4043C102.226 78.4043 99.9298 62.4095 103.375 47.235C104.031 44.5282 105.015 39.2787 105.015 39.2787L103.047 39.6068Z" fill="#E34208"/>
<path d="M68.1043 45.5946C68.1043 45.5946 66.3818 44.9384 65.2334 44.0361C64.0851 43.0518 62.1165 40.6731 61.7884 40.427C61.4603 40.263 58.5074 33.2089 57.7692 32.7988C57.031 32.3887 58.8355 31.9785 60.0659 33.7831C61.2963 35.5876 63.675 38.1304 64.8233 38.2944C65.9716 38.4585 65.5615 36.4899 66.4638 36.2438C67.284 36.0798 67.202 36.3258 67.4481 36.5719C67.7762 36.9 66.6278 38.9506 67.4481 39.8529C68.2683 40.7551 68.0222 42.1495 68.5964 42.8878C69.1706 43.626 69.2526 42.5597 69.2526 42.5597L68.1043 45.5946Z" fill="#FFAE73"/>
<path d="M32.2402 0.201416H69.9116C74.2605 0.201416 78.0218 3.72759 78.2569 8.07655L79.6673 30.6441L80.1375 37.9903L72.3799 30.6441H34.1209C29.7719 30.6441 26.0107 27.1179 25.7756 22.769L24.8353 8.07655C24.6002 3.72759 27.8913 0.201416 32.2402 0.201416Z" fill="#9DB6FE"/>
<path d="M34.1797 10.9562H69.7941C70.4994 10.9562 71.0871 10.3685 71.0283 9.66329C70.9695 8.95806 70.3818 8.37036 69.6178 8.37036H34.0622C33.357 8.37036 32.7693 8.95806 32.828 9.66329C32.8868 10.3685 33.4745 10.9562 34.1797 10.9562Z" fill="white"/>
<path d="M34.5912 17.0096H70.2056C70.9108 17.0096 71.4985 16.4219 71.4397 15.7166C71.381 15.0114 70.7933 14.4237 70.0293 14.4237H34.4149C33.7096 14.4237 33.1219 15.0114 33.1807 15.7166C33.2395 16.4219 33.8859 17.0096 34.5912 17.0096Z" fill="white"/>
<path d="M47.109 23.0628H70.6169C71.3221 23.0628 71.9098 22.4751 71.851 21.7699C71.7923 21.0646 71.2046 20.4769 70.4406 20.4769H46.9327C46.2275 20.4769 45.6398 21.0646 45.6985 21.7699C45.7573 22.4751 46.4038 23.0628 47.109 23.0628Z" fill="white"/>
<path d="M45.5811 37.9315H7.90974C3.56078 37.9315 0.269682 41.4577 0.56353 45.8067L1.62138 62.3797L2.09154 69.7259L8.96759 62.3797H47.2266C51.5756 62.3797 54.8667 58.8535 54.5728 54.5046L54.0439 45.8067C53.6913 41.5165 49.93 37.9315 45.5811 37.9315Z" fill="#F25B24"/>
<path d="M44.9345 48.745H9.32014C8.6149 48.745 7.96844 48.1574 7.90967 47.4521C7.8509 46.7469 8.43859 46.1592 9.14383 46.1592H44.7582C45.4635 46.1592 46.1099 46.7469 46.1687 47.4521C46.2275 48.1574 45.6985 48.745 44.9345 48.745Z" fill="white"/>
<path d="M33.1807 54.7984H9.6728C8.96756 54.7984 8.3211 54.2107 8.26233 53.5055C8.20356 52.8002 8.79126 52.2125 9.49649 52.2125H33.0043C33.7096 52.2125 34.356 52.8002 34.4148 53.5055C34.4736 54.2107 33.9447 54.7984 33.1807 54.7984Z" fill="white"/>
<path d="M36.5893 69.6671H74.2607C78.6096 69.6671 82.3709 73.1933 82.6059 77.5423L83.7226 95.1731L84.1927 102.519L76.4351 95.1731H38.2349C33.8859 95.1731 30.1247 91.647 29.8896 87.298L29.2431 77.4835C28.9493 73.2521 32.2991 69.6671 36.5893 69.6671Z" fill="#9DB6FE"/>
<path d="M51.7518 81.4798C51.8694 83.0078 53.1623 84.242 54.6903 84.242C56.2183 84.242 57.3937 83.0078 57.2762 81.4798C57.1586 79.9518 55.8657 78.7177 54.3377 78.7177C52.8097 78.7177 51.6343 79.9518 51.7518 81.4798Z" fill="white"/>
<path d="M41.5258 81.4798C41.6434 83.0078 42.9363 84.242 44.4643 84.242C45.9923 84.242 47.1677 83.0078 47.0502 81.4798C46.9326 79.9518 45.6397 78.7177 44.1117 78.7177C42.5837 78.7177 41.4671 79.9518 41.5258 81.4798Z" fill="white"/>
<path d="M63.0943 81.4798C63.2119 83.0078 64.5048 84.242 66.0328 84.242C67.5608 84.242 68.7362 83.0078 68.6187 81.4798C68.5011 79.9518 67.2082 78.7177 65.6802 78.7177C64.1522 78.7177 62.9768 79.9518 63.0943 81.4798Z" fill="white"/>
</svg>
